<svg xmlns="http://www.w3.org/2000/svg" width="1120" height="360" viewBox="0 0 1120 360" role="img" aria-labelledby="title desc">
  <title id="title">C4 Deployment</title>
  <desc id="desc">Deployment Diagramm für Docker Compose, PostgreSQL, PokeAPI und Open-Meteo.</desc>

  <defs>
    <marker id="arrow" markerWidth="10" markerHeight="10" refX="9" refY="3" orient="auto" markerUnits="strokeWidth">
      <path d="M0,0 L0,6 L9,3 z" fill="#344054"/>
    </marker>
    <style>
      .bg{fill:#f8fafc}
      .group{fill:#fff;stroke:#98a2b3;stroke-width:2;stroke-dasharray:8 6;rx:16}
      .box{fill:#edf7f6;stroke:#19756d;stroke-width:2;rx:12}
      .host{fill:#fff0d6;stroke:#b66a00;stroke-width:2;rx:12}
      .external{fill:#f4e7ff;stroke:#7a3fb0;stroke-width:2;rx:12}
      .db{fill:#fff5e8;stroke:#b65f00;stroke-width:2}
      .title{font:700 24px Arial,sans-serif;fill:#101828}
      .label{font:700 15px Arial,sans-serif;fill:#101828}
      .small{font:12px Arial,sans-serif;fill:#475467}
      .arrow{stroke:#344054;stroke-width:2.2;fill:none;marker-end:url(#arrow)}
    </style>
  </defs>

  <rect class="bg" width="1120" height="360"/>
  <text x="40" y="45" class="title">Deployment View</text>

  <!-- Host -->
  <rect x="45" y="145" width="185" height="74" class="host"/>
  <text x="137.5" y="173" text-anchor="middle" class="label">Entwicklerrechner</text>
  <text x="137.5" y="193" text-anchor="middle" class="small">Docker Host</text>

  <!-- Docker Compose group -->
  <rect x="285" y="85" width="610" height="210" class="group"/>
  <text x="310" y="115" class="label">Docker Compose Umgebung</text>

  <!-- Frontend -->
  <rect x="325" y="165" width="145" height="64" class="box"/>
  <text x="397.5" y="190" text-anchor="middle" class="label">Frontend</text>
  <text x="397.5" y="209" text-anchor="middle" class="small">Container · Port 3000</text>

  <!-- Backend -->
  <rect x="540" y="165" width="145" height="64" class="box"/>
  <text x="612.5" y="190" text-anchor="middle" class="label">Backend</text>
  <text x="612.5" y="209" text-anchor="middle" class="small">Container · Port 8181</text>

  <!-- Postgres -->
  <ellipse cx="795" cy="198" rx="82" ry="46" class="db"/>
  <text x="795" y="188" text-anchor="middle" class="label">PostgreSQL</text>
  <text x="795" y="206" text-anchor="middle" class="small">Container · Port 5432</text>
  <text x="795" y="223" text-anchor="middle" class="small">Volume: db_data</text>

  <!-- External services -->
  <rect x="955" y="115" width="125" height="64" class="external"/>
  <text x="1017.5" y="141" text-anchor="middle" class="label">PokeAPI</text>
  <text x="1017.5" y="160" text-anchor="middle" class="small">Internet</text>

  <rect x="955" y="225" width="125" height="64" class="external"/>
  <text x="1017.5" y="251" text-anchor="middle" class="label">Open-Meteo</text>
  <text x="1017.5" y="270" text-anchor="middle" class="small">Internet</text>

  <!-- Arrows -->
  <path d="M230 182 H325" class="arrow"/>
  <text x="277.5" y="170" text-anchor="middle" class="small">localhost:3000</text>

  <path d="M470 197 H540" class="arrow"/>
  <text x="505" y="185" text-anchor="middle" class="small">REST</text>

  <path d="M685 197 H713" class="arrow"/>
  <text x="699" y="185" text-anchor="middle" class="small">JDBC</text>

  <path d="M685 175 C760 125,875 128,955 147" class="arrow"/>
  <text x="835" y="120" text-anchor="middle" class="small">HTTPS JSON</text>

  <path d="M685 220 C760 270,875 270,955 257" class="arrow"/>
  <text x="835" y="286" text-anchor="middle" class="small">HTTPS JSON</text>
</svg>