<svg xmlns="http://www.w3.org/2000/svg" width="980" height="310" viewBox="0 0 980 310" role="img" aria-labelledby="title desc">
  <title id="title">C4 Level 1 System Context</title>
  <desc id="desc">System Context Diagramm für PokeHabit mit PokeAPI und Open-Meteo als externen Diensten.</desc>
  <defs>
    <marker id="arrow" markerWidth="10" markerHeight="10" refX="9" refY="3" orient="auto" markerUnits="strokeWidth">
      <path d="M0,0 L0,6 L9,3 z" fill="#344054" />
    </marker>
    <style>
      .bg{fill:#f8fafc}
      .box{stroke-width:2;rx:12}
      .person{fill:#fff0d6;stroke:#b66a00}
      .system{fill:#dff3ff;stroke:#1677a3}
      .external{fill:#f4e7ff;stroke:#7a3fb0}
      .title{font:700 24px Arial,sans-serif;fill:#101828}
      .label{font:700 16px Arial,sans-serif;fill:#101828}
      .small{font:13px Arial,sans-serif;fill:#475467}
      .arrow{stroke:#344054;stroke-width:2.2;fill:none;marker-end:url(#arrow)}
    </style>
  </defs>

  <rect class="bg" width="980" height="310" />
  <text x="40" y="45" class="title">Level 1: System Context</text>

  <rect x="60" y="128" width="180" height="75" class="box person" />
  <text x="150" y="158" text-anchor="middle" class="label">Person</text>
  <text x="150" y="179" text-anchor="middle" class="small">Nutzer der Self-Care App</text>

  <rect x="340" y="110" width="250" height="110" class="box system" />
  <text x="465" y="147" text-anchor="middle" class="label">PokeHabit</text>
  <text x="465" y="170" text-anchor="middle" class="small">Aufgaben, Fortschritt und</text>
  <text x="465" y="190" text-anchor="middle" class="small">Pokemon-Gamification</text>

  <rect x="730" y="80" width="180" height="75" class="box external" />
  <text x="820" y="111" text-anchor="middle" class="label">PokeAPI</text>
  <text x="820" y="131" text-anchor="middle" class="small">Pokemon-Daten</text>

  <rect x="730" y="190" width="180" height="75" class="box external" />
  <text x="820" y="221" text-anchor="middle" class="label">Open-Meteo</text>
  <text x="820" y="241" text-anchor="middle" class="small">Wetterdaten</text>

  <path d="M240 166 H340" class="arrow" />
  <text x="290" y="154" text-anchor="middle" class="small">nutzt im Browser</text>

  <path d="M590 145 C645 145, 670 118, 730 118" class="arrow" />
  <text x="660" y="105" text-anchor="middle" class="small">HTTPS</text>

  <path d="M590 185 C645 185, 670 228, 730 228" class="arrow" />
  <text x="660" y="219" text-anchor="middle" class="small">HTTPS</text>
</svg>
