<svg xmlns="http://www.w3.org/2000/svg" width="1100" height="400" viewBox="0 0 1100 400" role="img" aria-labelledby="title desc">
  <title id="title">C4 Level 2 Container</title>
  <desc id="desc">Container Diagramm für Frontend, Backend, Datenbank, PokeAPI und Open-Meteo.</desc>

  <defs>
    <marker id="arrow" markerWidth="10" markerHeight="10" refX="9" refY="3" orient="auto" markerUnits="strokeWidth">
      <path d="M0,0 L0,6 L9,3 z" fill="#344054"/>
    </marker>

    <style>
      .bg{fill:#f8fafc}
      .group{fill:#fff;stroke:#98a2b3;stroke-width:2;stroke-dasharray:8 6;rx:16}
      .box{stroke-width:2;rx:12}
      .person{fill:#fff0d6;stroke:#b66a00}
      .frontend{fill:#e7f8ef;stroke:#138a4e}
      .backend{fill:#e8f1ff;stroke:#0d6efd}
      .external{fill:#f4e7ff;stroke:#7a3fb0}
      .db{fill:#fff5e8;stroke:#b65f00;stroke-width:2}
      .title{font:700 24px Arial,sans-serif;fill:#101828}
      .label{font:700 15px Arial,sans-serif;fill:#101828}
      .small{font:13px Arial,sans-serif;fill:#475467}
      .arrow{stroke:#344054;stroke-width:2.2;fill:none;marker-end:url(#arrow)}
    </style>
  </defs>

  <rect class="bg" width="1100" height="400"/>
  <text x="40" y="45" class="title">Level 2: Container</text>

  <rect x="40" y="165" width="135" height="70" class="box person"/>
  <text x="107" y="196" text-anchor="middle" class="label">Nutzer</text>
  <text x="107" y="216" text-anchor="middle" class="small">Browser</text>

  <rect x="245" y="95" width="650" height="220" class="group"/>
  <text x="270" y="125" class="label">PokeHabit</text>

  <rect x="290" y="180" width="145" height="70" class="box frontend"/>
  <text x="362" y="208" text-anchor="middle" class="label">Frontend</text>
  <text x="362" y="228" text-anchor="middle" class="small">Angular SPA</text>

  <rect x="510" y="180" width="155" height="70" class="box backend"/>
  <text x="587" y="208" text-anchor="middle" class="label">Backend API</text>
  <text x="587" y="228" text-anchor="middle" class="small">Spring Boot</text>

  <ellipse cx="800" cy="215" rx="82" ry="44" class="db"/>
  <text x="800" y="205" text-anchor="middle" class="label">PostgreSQL</text>
  <text x="800" y="225" text-anchor="middle" class="small">Persistenz</text>
  <text x="800" y="243" text-anchor="middle" class="small">Port 5432</text>

  <rect x="950" y="115" width="120" height="70" class="box external"/>
  <text x="1010" y="143" text-anchor="middle" class="label">PokeAPI</text>
  <text x="1010" y="163" text-anchor="middle" class="small">REST</text>

  <rect x="950" y="245" width="120" height="70" class="box external"/>
  <text x="1010" y="273" text-anchor="middle" class="label">Open-Meteo</text>
  <text x="1010" y="293" text-anchor="middle" class="small">Wetter-API</text>

  <path d="M175 200 H290" class="arrow"/>
  <text x="232" y="188" text-anchor="middle" class="small">HTTPS</text>

  <path d="M435 215 H510" class="arrow"/>
  <text x="472" y="203" text-anchor="middle" class="small">REST JSON</text>

  <path d="M665 215 H718" class="arrow"/>
  <text x="692" y="203" text-anchor="middle" class="small">JPA</text>

  <path d="M665 190 C745 130,850 130,950 150" class="arrow"/>
  <text x="812" y="126" text-anchor="middle" class="small">HTTPS JSON</text>

  <path d="M665 240 C745 300,850 300,950 280" class="arrow"/>
  <text x="812" y="316" text-anchor="middle" class="small">HTTPS JSON</text>
</svg>