<svg xmlns="http://www.w3.org/2000/svg" width="1700" height="1780" viewBox="0 0 1700 1780" role="img" aria-label="Sequenzdiagramm Wassertracking und automatische Quest-Aktualisierung">
    <defs>
        <marker id="arrow" markerWidth="12" markerHeight="12" refX="10" refY="6" orient="auto" markerUnits="strokeWidth">
            <path d="M2,2 L10,6 L2,10 Z" fill="#334155"/>
        </marker>
        <filter id="shadow" x="-20%" y="-20%" width="140%" height="140%">
            <feDropShadow dx="0" dy="4" stdDeviation="8" flood-color="#0f172a" flood-opacity="0.12"/>
        </filter>
    </defs>
    <rect width="1700" height="1780" fill="#FFFFFF"/>

    <text x="850.0" y="54" text-anchor="middle" font-size="30" font-weight="700" fill="#0F172A" font-family="Inter, Arial, sans-serif">Wassertracking und automatische Quest-Aktualisierung</text>
    <text x="850.0" y="88" text-anchor="middle" font-size="17" font-weight="400" fill="#475569" font-family="Inter, Arial, sans-serif">Laufzeitsicht: Wasseraktion, Tagesziel-Prüfung, automatischer Questabschluss und UI-Update</text>
    <rect x="55" y="205" width="440" height="52" rx="14" fill="#EFF6FF" stroke="#BFDBFE" stroke-width="1.4" />
    <text x="275.0" y="237" text-anchor="middle" font-size="15" font-weight="700" fill="#334155" font-family="Inter, Arial, sans-serif">Frontend: Wasseraktion starten</text>
    <rect x="1010" y="560" width="610" height="52" rx="14" fill="#F8FAFC" stroke="#CBD5E1" stroke-width="1.4" />
    <text x="1315.0" y="592" text-anchor="middle" font-size="15" font-weight="700" fill="#334155" font-family="Inter, Arial, sans-serif">Backend: Spielstand prüfen und aktualisieren</text>
    <rect x="400" y="1480" width="420" height="52" rx="14" fill="#F0FDF4" stroke="#BBF7D0" stroke-width="1.4" />
    <text x="610.0" y="1512" text-anchor="middle" font-size="15" font-weight="700" fill="#334155" font-family="Inter, Arial, sans-serif">Frontend: aktualisierten Zustand anzeigen</text>
    <g filter="url(#shadow)">
        <rect x="12.5" y="125" width="205" height="56" rx="14" fill="#E0F2FE" stroke="#0284C7" stroke-width="2" />
    </g>
    <text x="115" y="160" text-anchor="middle" font-size="15" font-weight="700" fill="#0F172A" font-family="Inter, Arial, sans-serif">Nutzer</text>
    <line x1="115" y1="181" x2="115" y2="1720" stroke="#94A3B8" stroke-width="2" stroke-dasharray="10 8" />
    <g filter="url(#shadow)">
        <rect x="287.5" y="125" width="205" height="56" rx="14" fill="#E0F2FE" stroke="#0284C7" stroke-width="2" />
    </g>
    <text x="390" y="160" text-anchor="middle" font-size="15" font-weight="700" fill="#0F172A" font-family="Inter, Arial, sans-serif">Angular-Frontend</text>
    <line x1="390" y1="181" x2="390" y2="1720" stroke="#94A3B8" stroke-width="2" stroke-dasharray="10 8" />
    <g filter="url(#shadow)">
        <rect x="567.5" y="125" width="205" height="56" rx="14" fill="#E0F2FE" stroke="#0284C7" stroke-width="2" />
    </g>
    <text x="670" y="160" text-anchor="middle" font-size="15" font-weight="700" fill="#0F172A" font-family="Inter, Arial, sans-serif">AppStateService</text>
    <line x1="670" y1="181" x2="670" y2="1720" stroke="#94A3B8" stroke-width="2" stroke-dasharray="10 8" />
    <g filter="url(#shadow)">
        <rect x="847.5" y="125" width="205" height="56" rx="14" fill="#E0F2FE" stroke="#0284C7" stroke-width="2" />
    </g>
    <text x="950" y="160" text-anchor="middle" font-size="15" font-weight="700" fill="#0F172A" font-family="Inter, Arial, sans-serif">BackendApiService</text>
    <line x1="950" y1="181" x2="950" y2="1720" stroke="#94A3B8" stroke-width="2" stroke-dasharray="10 8" />
    <g filter="url(#shadow)">
        <rect x="1137.5" y="125" width="205" height="56" rx="14" fill="#E0F2FE" stroke="#0284C7" stroke-width="2" />
    </g>
    <text x="1240" y="160" text-anchor="middle" font-size="15" font-weight="700" fill="#0F172A" font-family="Inter, Arial, sans-serif">Spring-Boot-Backend</text>
    <line x1="1240" y1="181" x2="1240" y2="1720" stroke="#94A3B8" stroke-width="2" stroke-dasharray="10 8" />
    <g filter="url(#shadow)">
        <rect x="1457.5" y="125" width="205" height="56" rx="14" fill="#E0F2FE" stroke="#0284C7" stroke-width="2" />
    </g>
    <text x="1560" y="160" text-anchor="middle" font-size="15" font-weight="700" fill="#0F172A" font-family="Inter, Arial, sans-serif">PostgreSQL</text>
    <line x1="1560" y1="181" x2="1560" y2="1720" stroke="#94A3B8" stroke-width="2" stroke-dasharray="10 8" />
    <rect x="1228" y="510" width="24" height="940" rx="6" fill="#BAE6FD" stroke="#0284C7" stroke-width="1.3" />
    <rect x="1548" y="720" width="24" height="75" rx="6" fill="#E0F2FE" stroke="#0284C7" stroke-width="1.3" />
    <rect x="1548" y="1295" width="24" height="75" rx="6" fill="#E0F2FE" stroke="#0284C7" stroke-width="1.3" />
    <line x1="115" y1="285" x2="390" y2="285" stroke="#334155" stroke-width="2.2"  marker-end="url(#arrow)" />
    <rect x="153.7" y="245" width="197.60000000000002" height="28" rx="10" fill="#FFFFFF" stroke="#E2E8F0" stroke-width="1.0" />
    <text x="252.5" y="261" text-anchor="middle" font-size="14" font-weight="500" fill="#0F172A" font-family="Inter, Arial, sans-serif"><tspan x="252.5" dy="0">1. Wassermenge auswählen</tspan></text>
    <line x1="390" y1="360" x2="670" y2="360" stroke="#334155" stroke-width="2.2"  marker-end="url(#arrow)" />
    <rect x="431.2" y="320" width="197.60000000000002" height="28" rx="10" fill="#FFFFFF" stroke="#E2E8F0" stroke-width="1.0" />
    <text x="530.0" y="336" text-anchor="middle" font-size="14" font-weight="500" fill="#0F172A" font-family="Inter, Arial, sans-serif"><tspan x="530.0" dy="0">2. Wasseraktion auslösen</tspan></text>
    <line x1="670" y1="435" x2="950" y2="435" stroke="#334155" stroke-width="2.2"  marker-end="url(#arrow)" />
    <rect x="722.3" y="395" width="175.4" height="28" rx="10" fill="#FFFFFF" stroke="#E2E8F0" stroke-width="1.0" />
    <text x="810.0" y="411" text-anchor="middle" font-size="14" font-weight="500" fill="#0F172A" font-family="Inter, Arial, sans-serif"><tspan x="810.0" dy="0">3. Wassermenge senden</tspan></text>
    <line x1="950" y1="510" x2="1240" y2="510" stroke="#334155" stroke-width="2.2"  marker-end="url(#arrow)" />
    <rect x="999.9" y="470" width="190.20000000000002" height="28" rx="10" fill="#FFFFFF" stroke="#E2E8F0" stroke-width="1.0" />
    <text x="1095.0" y="486" text-anchor="middle" font-size="14" font-weight="500" fill="#0F172A" font-family="Inter, Arial, sans-serif"><tspan x="1095.0" dy="0">4. POST /api/user/water</tspan></text>
    <path d="M1252,630 H1470 V674 H1258" fill="none" stroke="#334155" stroke-width="2.2" marker-end="url(#arrow)" />
    <rect x="1290.1" y="590" width="145.8" height="28" rx="10" fill="#FFFFFF" stroke="#E2E8F0" stroke-width="1.0" />
    <text x="1363.0" y="606" text-anchor="middle" font-size="14" font-weight="500" fill="#0F172A" font-family="Inter, Arial, sans-serif"><tspan x="1363.0" dy="0">5. Session prüfen</tspan></text>
    <line x1="1240" y1="720" x2="1560" y2="720" stroke="#334155" stroke-width="2.2"  marker-end="url(#arrow)" />
    <rect x="1319.7" y="680" width="160.6" height="28" rx="10" fill="#FFFFFF" stroke="#E2E8F0" stroke-width="1.0" />
    <text x="1400.0" y="696" text-anchor="middle" font-size="14" font-weight="500" fill="#0F172A" font-family="Inter, Arial, sans-serif"><tspan x="1400.0" dy="0">6. Spielstand laden</tspan></text>
    <line x1="1560" y1="795" x2="1240" y2="795" stroke="#334155" stroke-width="2.2" stroke-dasharray="8 8" marker-end="url(#arrow)" />
    <rect x="1282.7" y="755" width="234.60000000000002" height="28" rx="10" fill="#FFFFFF" stroke="#E2E8F0" stroke-width="1.0" />
    <text x="1400.0" y="771" text-anchor="middle" font-size="14" font-weight="500" fill="#0F172A" font-family="Inter, Arial, sans-serif"><tspan x="1400.0" dy="0">7. Wasserstand und Taskstatus</tspan></text>
    <path d="M1252,895 H1470 V939 H1258" fill="none" stroke="#334155" stroke-width="2.2" marker-end="url(#arrow)" />
    <rect x="1271.6" y="855" width="182.8" height="28" rx="10" fill="#FFFFFF" stroke="#E2E8F0" stroke-width="1.0" />
    <text x="1363.0" y="871" text-anchor="middle" font-size="14" font-weight="500" fill="#0F172A" font-family="Inter, Arial, sans-serif"><tspan x="1363.0" dy="0">8. Wasserstand erhöhen</tspan></text>
    <path d="M1252,995 H1470 V1039 H1258" fill="none" stroke="#334155" stroke-width="2.2" marker-end="url(#arrow)" />
    <rect x="1282.7" y="955" width="160.6" height="28" rx="10" fill="#FFFFFF" stroke="#E2E8F0" stroke-width="1.0" />
    <text x="1363.0" y="971" text-anchor="middle" font-size="14" font-weight="500" fill="#0F172A" font-family="Inter, Arial, sans-serif"><tspan x="1363.0" dy="0">9. Tagesziel prüfen</tspan></text>
    <path d="M1252,1095 H1590 V1139 H1258" fill="none" stroke="#334155" stroke-width="2.2" marker-end="url(#arrow)" />
    <rect x="1290.9" y="1055" width="264.20000000000005" height="28" rx="10" fill="#FFFFFF" stroke="#E2E8F0" stroke-width="1.0" />
    <text x="1423.0" y="1071" text-anchor="middle" font-size="14" font-weight="500" fill="#0F172A" font-family="Inter, Arial, sans-serif"><tspan x="1423.0" dy="0">10. Wasser-Quest ggf. abschließen</tspan></text>
    <path d="M1252,1195 H1590 V1239 H1258" fill="none" stroke="#334155" stroke-width="2.2" marker-end="url(#arrow)" />
    <rect x="1298.3" y="1155" width="249.4" height="46" rx="10" fill="#FFFFFF" stroke="#E2E8F0" stroke-width="1.0" />
    <text x="1423.0" y="1171" text-anchor="middle" font-size="14" font-weight="500" fill="#0F172A" font-family="Inter, Arial, sans-serif"><tspan x="1423.0" dy="0">11. Questpunkte und Fortschritt</tspan><tspan x="1423.0" dy="18">aktualisieren</tspan></text>
    <line x1="1240" y1="1295" x2="1560" y2="1295" stroke="#334155" stroke-width="2.2"  marker-end="url(#arrow)" />
    <rect x="1301.2" y="1255" width="197.60000000000002" height="28" rx="10" fill="#FFFFFF" stroke="#E2E8F0" stroke-width="1.0" />
    <text x="1400.0" y="1271" text-anchor="middle" font-size="14" font-weight="500" fill="#0F172A" font-family="Inter, Arial, sans-serif"><tspan x="1400.0" dy="0">12. Spielstand speichern</tspan></text>
    <line x1="1560" y1="1370" x2="1240" y2="1370" stroke="#334155" stroke-width="2.2" stroke-dasharray="8 8" marker-end="url(#arrow)" />
    <rect x="1316.0" y="1330" width="168.0" height="28" rx="10" fill="#FFFFFF" stroke="#E2E8F0" stroke-width="1.0" />
    <text x="1400.0" y="1346" text-anchor="middle" font-size="14" font-weight="500" fill="#0F172A" font-family="Inter, Arial, sans-serif"><tspan x="1400.0" dy="0">13. Neuer Spielstand</tspan></text>
    <line x1="1240" y1="1450" x2="950" y2="1450" stroke="#334155" stroke-width="2.2" stroke-dasharray="8 8" marker-end="url(#arrow)" />
    <rect x="1014.7" y="1410" width="160.6" height="28" rx="10" fill="#FFFFFF" stroke="#E2E8F0" stroke-width="1.0" />
    <text x="1095.0" y="1426" text-anchor="middle" font-size="14" font-weight="500" fill="#0F172A" font-family="Inter, Arial, sans-serif"><tspan x="1095.0" dy="0">14. Dashboard-Daten</tspan></text>
    <line x1="950" y1="1525" x2="670" y2="1525" stroke="#334155" stroke-width="2.2" stroke-dasharray="8 8" marker-end="url(#arrow)" />
    <rect x="737.1" y="1485" width="145.8" height="28" rx="10" fill="#FFFFFF" stroke="#E2E8F0" stroke-width="1.0" />
    <text x="810.0" y="1501" text-anchor="middle" font-size="14" font-weight="500" fill="#0F172A" font-family="Inter, Arial, sans-serif"><tspan x="810.0" dy="0">15. Neuer Zustand</tspan></text>
    <line x1="670" y1="1600" x2="390" y2="1600" stroke="#334155" stroke-width="2.2" stroke-dasharray="8 8" marker-end="url(#arrow)" />
    <rect x="446.0" y="1560" width="168.0" height="28" rx="10" fill="#FFFFFF" stroke="#E2E8F0" stroke-width="1.0" />
    <text x="530.0" y="1576" text-anchor="middle" font-size="14" font-weight="500" fill="#0F172A" font-family="Inter, Arial, sans-serif"><tspan x="530.0" dy="0">16. UI aktualisieren</tspan></text>
    <line x1="390" y1="1675" x2="115" y2="1675" stroke="#334155" stroke-width="2.2" stroke-dasharray="8 8" marker-end="url(#arrow)" />
    <rect x="105.6" y="1635" width="293.8" height="46" rx="10" fill="#FFFFFF" stroke="#E2E8F0" stroke-width="1.0" />
    <text x="252.5" y="1651" text-anchor="middle" font-size="14" font-weight="500" fill="#0F172A" font-family="Inter, Arial, sans-serif"><tspan x="252.5" dy="0">17. Wasserstand und Quest-Fortschritt</tspan><tspan x="252.5" dy="18">anzeigen</tspan></text>
    <rect x="360" y="1722" width="980" height="44" rx="14" fill="#F8FAFC" stroke="#CBD5E1" stroke-width="1.4" />
    <text x="850" y="1750" text-anchor="middle" font-size="15" font-weight="600" fill="#334155" font-family="Inter, Arial, sans-serif">Die Entscheidung über Tagesziel und Questabschluss liegt im Backend, damit der Spielstand konsistent bleibt.</text>
</svg>