<svg xmlns="http://www.w3.org/2000/svg" width="1400" height="980" viewBox="0 0 1400 980" role="img" aria-labelledby="title desc">
    <title id="title">C4 Diagram - PokeHabit</title>
    <desc id="desc">Kombiniertes C4-Diagramm für PokeHabit mit Kontext-, Container-, Backend-Komponenten-, Frontend-Komponenten- und Deployment-Sicht.</desc>

    <defs>
        <marker id="arrow" markerWidth="10" markerHeight="10" refX="9" refY="3" orient="auto" markerUnits="strokeWidth">
            <path d="M0,0 L0,6 L9,3 z" fill="#344054"/>
        </marker>
        <style>
            .bg{fill:#f8fafc}
            .panel{fill:#ffffff;stroke:#cbd5e1;stroke-width:2;rx:14}
            .group{fill:#ffffff;stroke:#98a2b3;stroke-width:2;stroke-dasharray:8 6;rx:14}
            .person{fill:#fff0d6;stroke:#b66a00;stroke-width:2;rx:10}
            .system{fill:#dff3ff;stroke:#1677a3;stroke-width:2;rx:10}
            .frontend{fill:#e7f8ef;stroke:#138a4e;stroke-width:2;rx:10}
            .backend{fill:#e8f1ff;stroke:#0d6efd;stroke-width:2;rx:10}
            .component{fill:#eef2ff;stroke:#4357ad;stroke-width:2;rx:10}
            .external{fill:#f4e7ff;stroke:#7a3fb0;stroke-width:2;rx:10}
            .db{fill:#fff5e8;stroke:#b65f00;stroke-width:2}
            .host{fill:#fff0d6;stroke:#b66a00;stroke-width:2;rx:10}
            .title{font:700 28px Arial,sans-serif;fill:#101828}
            .subtitle{font:14px Arial,sans-serif;fill:#475467}
            .panel-title{font:700 18px Arial,sans-serif;fill:#101828}
            .label{font:700 14px Arial,sans-serif;fill:#101828}
            .small{font:12px Arial,sans-serif;fill:#475467}
            .tiny{font:11px Arial,sans-serif;fill:#475467}
            .arrow{stroke:#344054;stroke-width:2;fill:none;marker-end:url(#arrow)}
            .dash{stroke-dasharray:7 6}
        </style>
    </defs>

    <rect class="bg" width="1400" height="980"/>

    <text x="55" y="55" class="title">C4 Diagram - PokeHabit</text>
    <text x="55" y="78" class="subtitle">Angular Frontend, Spring Boot Backend, PostgreSQL, PokeAPI, Open-Meteo und Docker Compose</text>

    <!-- Level 1 -->
    <rect x="40" y="105" width="620" height="205" class="panel"/>
    <text x="70" y="140" class="panel-title">Level 1: System Context</text>

    <rect x="80" y="180" width="135" height="70" class="person"/>
    <text x="147.5" y="207" text-anchor="middle" class="label">Nutzer</text>
    <text x="147.5" y="226" text-anchor="middle" class="small">Browser</text>

    <rect x="305" y="165" width="180" height="95" class="system"/>
    <text x="395" y="196" text-anchor="middle" class="label">PokeHabit</text>
    <text x="395" y="216" text-anchor="middle" class="small">Aufgaben, Fortschritt</text>
    <text x="395" y="234" text-anchor="middle" class="small">und Pokemon-Gamification</text>

    <rect x="535" y="135" width="100" height="62" class="external"/>
    <text x="585" y="160" text-anchor="middle" class="label">PokeAPI</text>
    <text x="585" y="178" text-anchor="middle" class="small">REST</text>

    <rect x="535" y="230" width="100" height="62" class="external"/>
    <text x="585" y="255" text-anchor="middle" class="label">Open-Meteo</text>
    <text x="585" y="273" text-anchor="middle" class="small">Wetter</text>

    <path d="M215 215 H305" class="arrow"/>
    <text x="260" y="203" text-anchor="middle" class="tiny">nutzt</text>

    <path d="M485 195 C510 180,515 166,535 166" class="arrow"/>
    <text x="515" y="150" text-anchor="middle" class="tiny">liest Daten</text>

    <path d="M485 230 C510 245,515 261,535 261" class="arrow"/>
    <text x="515" y="286" text-anchor="middle" class="tiny">liest Wetter</text>

    <!-- Level 2 -->
    <rect x="700" y="105" width="660" height="205" class="panel"/>
    <text x="730" y="140" class="panel-title">Level 2: Container</text>

    <rect x="735" y="160" width="450" height="115" class="group"/>
    <text x="755" y="184" class="tiny">PokeHabit</text>

    <rect x="775" y="205" width="120" height="50" class="frontend"/>
    <text x="835" y="226" text-anchor="middle" class="label">Frontend</text>
    <text x="835" y="243" text-anchor="middle" class="tiny">Angular</text>

    <rect x="945" y="205" width="125" height="50" class="backend"/>
    <text x="1007.5" y="226" text-anchor="middle" class="label">Backend API</text>
    <text x="1007.5" y="243" text-anchor="middle" class="tiny">Spring Boot</text>

    <ellipse cx="1140" cy="230" rx="48" ry="29" class="db"/>
    <text x="1140" y="226" text-anchor="middle" class="label">PostgreSQL</text>
    <text x="1140" y="243" text-anchor="middle" class="tiny">Persistenz</text>

    <rect x="1225" y="145" width="105" height="54" class="external"/>
    <text x="1277.5" y="168" text-anchor="middle" class="label">PokeAPI</text>
    <text x="1277.5" y="185" text-anchor="middle" class="tiny">extern</text>

    <rect x="1225" y="235" width="105" height="54" class="external"/>
    <text x="1277.5" y="258" text-anchor="middle" class="label">Open-Meteo</text>
    <text x="1277.5" y="275" text-anchor="middle" class="tiny">extern</text>

    <path d="M895 230 H945" class="arrow"/>
    <text x="920" y="218" text-anchor="middle" class="tiny">REST / JSON</text>

    <path d="M1070 230 H1092" class="arrow"/>
    <text x="1081" y="218" text-anchor="middle" class="tiny">JPA</text>

    <path d="M1070 215 C1120 165,1180 158,1225 172" class="arrow"/>
    <text x="1160" y="148" text-anchor="middle" class="tiny">HTTPS</text>

    <path d="M1070 245 C1120 285,1180 280,1225 262" class="arrow"/>
    <text x="1160" y="298" text-anchor="middle" class="tiny">HTTPS</text>

    <!-- Backend Components -->
    <rect x="40" y="340" width="620" height="395" class="panel"/>
    <text x="70" y="375" class="panel-title">Level 3: Backend Komponenten</text>

    <rect x="65" y="510" width="105" height="56" class="frontend"/>
    <text x="117.5" y="533" text-anchor="middle" class="label">Angular</text>
    <text x="117.5" y="550" text-anchor="middle" class="tiny">Frontend</text>

    <rect x="210" y="405" width="380" height="250" class="group"/>
    <text x="230" y="428" class="tiny">Spring Boot Backend</text>

    <rect x="240" y="455" width="95" height="50" class="component"/>
    <text x="287.5" y="475" text-anchor="middle" class="label">Controller</text>
    <text x="287.5" y="492" text-anchor="middle" class="tiny">REST</text>

    <rect x="385" y="455" width="95" height="50" class="component"/>
    <text x="432.5" y="475" text-anchor="middle" class="label">Service</text>
    <text x="432.5" y="492" text-anchor="middle" class="tiny">Businesslogik</text>

    <rect x="505" y="455" width="70" height="50" class="component"/>
    <text x="540" y="475" text-anchor="middle" class="label">Domain</text>
    <text x="540" y="492" text-anchor="middle" class="tiny">User, Task</text>

    <rect x="240" y="545" width="95" height="50" class="component"/>
    <text x="287.5" y="565" text-anchor="middle" class="label">Security</text>
    <text x="287.5" y="582" text-anchor="middle" class="tiny">Auth / CORS</text>

    <rect x="385" y="545" width="95" height="50" class="component"/>
    <text x="432.5" y="565" text-anchor="middle" class="label">Repository</text>
    <text x="432.5" y="582" text-anchor="middle" class="tiny">JPA</text>

    <rect x="505" y="545" width="70" height="50" class="component"/>
    <text x="540" y="565" text-anchor="middle" class="label">Integration</text>
    <text x="540" y="582" text-anchor="middle" class="tiny">Clients</text>

    <ellipse cx="432.5" cy="705" rx="62" ry="28" class="db"/>
    <text x="432.5" y="701" text-anchor="middle" class="label">PostgreSQL</text>
    <text x="432.5" y="718" text-anchor="middle" class="tiny">Daten</text>

    <rect x="505" y="665" width="95" height="45" class="external"/>
    <text x="552.5" y="684" text-anchor="middle" class="label">PokeAPI</text>
    <text x="552.5" y="700" text-anchor="middle" class="tiny">extern</text>

    <rect x="505" y="725" width="95" height="45" class="external"/>
    <text x="552.5" y="744" text-anchor="middle" class="label">Open-Meteo</text>
    <text x="552.5" y="760" text-anchor="middle" class="tiny">extern</text>

    <path d="M170 538 H240" class="arrow"/>
    <text x="205" y="526" text-anchor="middle" class="tiny">REST</text>

    <path d="M335 480 H385" class="arrow"/>
    <path d="M480 480 H505" class="arrow"/>

    <path d="M287.5 545 V505" class="arrow dash"/>
    <text x="310" y="531" text-anchor="middle" class="tiny">schützt</text>

    <path d="M432.5 505 V545" class="arrow"/>
    <path d="M480 570 H505" class="arrow"/>
    <path d="M432.5 595 V677" class="arrow"/>
    <path d="M540 595 V665" class="arrow"/>
    <path d="M575 570 C620 610,620 742,600 747" class="arrow"/>

    <!-- Frontend Components -->
    <rect x="700" y="340" width="660" height="255" class="panel"/>
    <text x="730" y="375" class="panel-title">Frontend Komponenten</text>

    <rect x="720" y="435" width="105" height="54" class="person"/>
    <text x="772.5" y="458" text-anchor="middle" class="label">Browser</text>
    <text x="772.5" y="475" text-anchor="middle" class="tiny">Nutzerzugriff</text>

    <rect x="855" y="400" width="375" height="155" class="group"/>
    <text x="875" y="423" class="tiny">Angular Frontend</text>

    <rect x="880" y="445" width="72" height="48" class="component"/>
    <text x="916" y="465" text-anchor="middle" class="label">Routing</text>
    <text x="916" y="482" text-anchor="middle" class="tiny">Routes</text>

    <rect x="975" y="445" width="72" height="48" class="component"/>
    <text x="1011" y="465" text-anchor="middle" class="label">Guards</text>
    <text x="1011" y="482" text-anchor="middle" class="tiny">Auth</text>

    <rect x="1070" y="445" width="72" height="48" class="component"/>
    <text x="1106" y="465" text-anchor="middle" class="label">Pages</text>
    <text x="1106" y="482" text-anchor="middle" class="tiny">Views</text>

    <rect x="1145" y="445" width="70" height="48" class="component"/>
    <text x="1180" y="465" text-anchor="middle" class="label">State</text>
    <text x="1180" y="482" text-anchor="middle" class="tiny">Services</text>

    <rect x="915" y="510" width="155" height="42" class="frontend"/>
    <text x="992.5" y="528" text-anchor="middle" class="label">Dashboard</text>
    <text x="992.5" y="544" text-anchor="middle" class="tiny">TaskList, PetCard</text>

    <rect x="1095" y="510" width="115" height="42" class="component"/>
    <text x="1152.5" y="528" text-anchor="middle" class="label">Models</text>
    <text x="1152.5" y="544" text-anchor="middle" class="tiny">User, Task, Weather</text>

    <rect x="1245" y="445" width="90" height="48" class="system"/>
    <text x="1290" y="465" text-anchor="middle" class="label">Backend API</text>
    <text x="1290" y="482" text-anchor="middle" class="tiny">REST</text>

    <path d="M825 462 H880" class="arrow"/>
    <text x="852" y="450" text-anchor="middle" class="tiny">nutzt</text>

    <path d="M952 469 H975" class="arrow"/>
    <path d="M1047 469 H1070" class="arrow"/>
    <path d="M1142 469 H1145" class="arrow"/>
    <path d="M1106 493 C1106 505,1030 505,1030 510" class="arrow"/>
    <path d="M1180 493 V510" class="arrow"/>
    <path d="M1215 469 H1245" class="arrow dash"/>
    <text x="1230" y="457" text-anchor="middle" class="tiny">REST</text>

    <!-- Deployment -->
    <rect x="700" y="625" width="660" height="285" class="panel"/>
    <text x="730" y="660" class="panel-title">Deployment</text>

    <rect x="720" y="735" width="145" height="62" class="host"/>
    <text x="792.5" y="761" text-anchor="middle" class="label">Entwicklerrechner</text>
    <text x="792.5" y="779" text-anchor="middle" class="tiny">Docker Host</text>

    <rect x="905" y="700" width="300" height="145" class="group"/>
    <text x="925" y="723" class="tiny">Docker Compose Umgebung</text>

    <rect x="930" y="755" width="80" height="45" class="frontend"/>
    <text x="970" y="773" text-anchor="middle" class="label">Frontend</text>
    <text x="970" y="789" text-anchor="middle" class="tiny">3000</text>

    <rect x="1040" y="755" width="80" height="45" class="backend"/>
    <text x="1080" y="773" text-anchor="middle" class="label">Backend</text>
    <text x="1080" y="789" text-anchor="middle" class="tiny">8181</text>

    <ellipse cx="1165" cy="778" rx="42" ry="25" class="db"/>
    <text x="1165" y="774" text-anchor="middle" class="label">Postgres</text>
    <text x="1165" y="790" text-anchor="middle" class="tiny">5432</text>

    <rect x="1240" y="695" width="95" height="48" class="external"/>
    <text x="1287.5" y="715" text-anchor="middle" class="label">PokeAPI</text>
    <text x="1287.5" y="732" text-anchor="middle" class="tiny">Internet</text>

    <rect x="1240" y="805" width="95" height="48" class="external"/>
    <text x="1287.5" y="825" text-anchor="middle" class="label">Open-Meteo</text>
    <text x="1287.5" y="842" text-anchor="middle" class="tiny">Internet</text>

    <path d="M865 766 H930" class="arrow"/>
    <text x="897" y="754" text-anchor="middle" class="tiny">localhost:3000</text>

    <path d="M1010 778 H1040" class="arrow"/>
    <text x="1025" y="766" text-anchor="middle" class="tiny">REST</text>

    <path d="M1120 778 H1123" class="arrow"/>
    <text x="1120" y="766" text-anchor="middle" class="tiny">JDBC</text>

    <path d="M1120 762 C1165 715,1200 710,1240 719" class="arrow"/>
    <text x="1190" y="698" text-anchor="middle" class="tiny">HTTPS</text>

    <path d="M1120 795 C1165 840,1200 838,1240 829" class="arrow"/>
    <text x="1190" y="862" text-anchor="middle" class="tiny">HTTPS</text>

    <text x="55" y="950" class="tiny">Hinweis: Die Einzelansichten liegen zusätzlich als separate SVG-Dateien im Ordner diagrams/mermaid.</text>
</svg>