<svg width="292" height="416" viewBox="14 2 292 416" fill="none" xmlns="http://www.w3.org/2000/svg">
  <defs>
    <linearGradient id="egg-shell" x1="74" y1="36" x2="262" y2="394" gradientUnits="userSpaceOnUse">
      <stop offset="0" stop-color="#fff7d7" />
      <stop offset="0.48" stop-color="#fff4c9" />
      <stop offset="1" stop-color="#f3d28f" />
    </linearGradient>
    <radialGradient id="shell-glow" cx="0" cy="0" r="1" gradientUnits="userSpaceOnUse" gradientTransform="translate(126 150) rotate(55) scale(210 120)">
      <stop stop-color="#ffffff" stop-opacity="0.88" />
      <stop offset="1" stop-color="#ffffff" stop-opacity="0" />
    </radialGradient>
    <linearGradient id="pink" x1="220" y1="58" x2="280" y2="178" gradientUnits="userSpaceOnUse">
      <stop stop-color="#ff5aa8" />
      <stop offset="1" stop-color="#e950bc" />
    </linearGradient>
    <linearGradient id="mint" x1="10" y1="198" x2="120" y2="282" gradientUnits="userSpaceOnUse">
      <stop stop-color="#71ecc5" />
      <stop offset="1" stop-color="#55d7a0" />
    </linearGradient>
    <linearGradient id="yellow" x1="170" y1="182" x2="272" y2="286" gradientUnits="userSpaceOnUse">
      <stop stop-color="#ffe42b" />
      <stop offset="1" stop-color="#ffc819" />
    </linearGradient>
    <linearGradient id="blue" x1="184" y1="354" x2="296" y2="324" gradientUnits="userSpaceOnUse">
      <stop stop-color="#56b7f7" />
      <stop offset="1" stop-color="#328dda" />
    </linearGradient>
    <linearGradient id="violet" x1="28" y1="318" x2="112" y2="390" gradientUnits="userSpaceOnUse">
      <stop stop-color="#9a62f4" />
      <stop offset="1" stop-color="#b15ee3" />
    </linearGradient>
    <clipPath id="egg-clip">
      <path d="M160 418C80 418 14 350 14 236C14 119 86 2 160 2C234 2 306 119 306 236C306 350 240 418 160 418Z" />
    </clipPath>
  </defs>

  <path d="M160 418C80 418 14 350 14 236C14 119 86 2 160 2C234 2 306 119 306 236C306 350 240 418 160 418Z" fill="url(#egg-shell)" />
  <g clip-path="url(#egg-clip)">
    <path d="M0 214C32 224 44 184 72 180C103 176 130 196 124 226C119 254 89 252 86 290C82 335 31 307 15 292C0 278-15 280-28 289L0 214Z" fill="url(#mint)" />
    <path d="M188 104C218 90 212 54 242 45C262 39 291 79 304 117C315 149 300 161 278 164C252 168 249 196 224 198C188 201 153 186 156 150C158 128 169 113 188 104Z" fill="url(#pink)" />
    <path d="M168 212C191 188 226 204 240 235C252 261 285 256 284 296C283 336 236 349 204 320C181 299 181 272 160 256C139 239 150 230 168 212Z" fill="url(#yellow)" />
    <path d="M200 372C220 336 267 323 306 322L306 420H160C162 402 183 399 200 372Z" fill="url(#blue)" />
    <path d="M28 314C51 332 58 347 88 347C126 348 142 390 102 404C66 416 24 367 18 340C15 325 17 314 28 314Z" fill="url(#violet)" />
    <path d="M50 119C70 78 91 52 119 57C142 62 116 105 100 129C86 151 66 162 45 151C29 143 37 130 50 119Z" fill="#ffd51b" />
    <path d="M304 168C290 178 287 192 286 213C284 240 312 250 320 274V164C314 164 309 165 304 168Z" fill="#9d62ea" />
    <circle cx="150" cy="154" r="23" fill="#6ce0b0" />
    <circle cx="153" cy="312" r="17" fill="#ef5aaa" />
    <circle cx="201" cy="330" r="19" fill="#68dfad" />
    <circle cx="283" cy="304" r="16" fill="#3da2e9" />
    <circle cx="276" cy="141" r="13" fill="#a66af0" />
    <circle cx="84" cy="150" r="14" fill="#43a8eb" />
    <circle cx="198" cy="56" r="14" fill="#ef5aaa" />
    <circle cx="184" cy="382" r="14" fill="#ffd21f" />
    <path d="M98 106C113 89 125 74 141 81C127 105 118 127 101 145C92 154 83 151 82 140C81 129 89 117 98 106Z" fill="#ffffff" opacity="0.55" />
    <path d="M42 198C55 204 75 201 91 191" stroke="#ffffff" stroke-opacity="0.2" stroke-width="18" stroke-linecap="round" />
    <path d="M205 31C246 47 280 93 298 148" stroke="#ffffff" stroke-opacity="0.22" stroke-width="18" stroke-linecap="round" />
    <path d="M26 260C35 345 87 398 160 408C218 416 260 381 285 332" stroke="#c69045" stroke-opacity="0.18" stroke-width="14" stroke-linecap="round" />
    <path d="M160 418C80 418 14 350 14 236C14 119 86 2 160 2C234 2 306 119 306 236C306 350 240 418 160 418Z" fill="url(#shell-glow)" />
  </g>
</svg>
