<svg width="420" height="420" viewBox="0 0 420 420" fill="none" xmlns="http://www.w3.org/2000/svg">
  <defs>
    <linearGradient id="eggBody" x1="130" y1="60" x2="290" y2="350" gradientUnits="userSpaceOnUse">
      <stop stop-color="#fff8ec" />
      <stop offset="0.58" stop-color="#f7dfc4" />
      <stop offset="1" stop-color="#e9b990" />
    </linearGradient>
    <linearGradient id="eggShadow" x1="210" y1="314" x2="210" y2="384" gradientUnits="userSpaceOnUse">
      <stop stop-color="#a97155" stop-opacity="0.32" />
      <stop offset="1" stop-color="#a97155" stop-opacity="0" />
    </linearGradient>
  </defs>
  <ellipse cx="210" cy="350" rx="104" ry="32" fill="url(#eggShadow)" />
  <path
    d="M311 238c0 80-45 116-101 116S109 318 109 238C109 151 165 54 210 54s101 97 101 184Z"
    fill="url(#eggBody)"
  />
  <path
    d="M143 236c23 20 41 20 63 0 24-21 43-21 68 0"
    stroke="#d8a87f"
    stroke-width="16"
    stroke-linecap="round"
  />
  <path
    d="M155 292c21 15 38 15 58 0 22-16 39-16 62 0"
    stroke="#cf946e"
    stroke-width="14"
    stroke-linecap="round"
  />
  <circle cx="174" cy="174" r="14" fill="#f2cfab" />
  <circle cx="248" cy="138" r="10" fill="#edc398" />
  <circle cx="231" cy="207" r="8" fill="#e7b788" />
</svg>
