<svg width="420" height="420" viewBox="0 0 420 420" fill="none" xmlns="http://www.w3.org/2000/svg">
  <defs>
    <linearGradient id="body" x1="121" y1="62" x2="302" y2="342" gradientUnits="userSpaceOnUse">
      <stop stop-color="#FFF3E9" />
      <stop offset="0.58" stop-color="#F7DCD0" />
      <stop offset="1" stop-color="#EEC2B8" />
    </linearGradient>
    <linearGradient id="belly" x1="181" y1="247" x2="243" y2="340" gradientUnits="userSpaceOnUse">
      <stop stop-color="#FFF7EF" />
      <stop offset="1" stop-color="#F7D9CE" />
    </linearGradient>
    <linearGradient id="ear" x1="104" y1="60" x2="162" y2="176" gradientUnits="userSpaceOnUse">
      <stop stop-color="#FFE6D8" />
      <stop offset="1" stop-color="#F2C6BA" />
    </linearGradient>
    <radialGradient id="glow" cx="0" cy="0" r="1" gradientUnits="userSpaceOnUse" gradientTransform="translate(173 141) rotate(54) scale(156 94)">
      <stop stop-color="#FFFFFF" stop-opacity="0.78" />
      <stop offset="1" stop-color="#FFFFFF" stop-opacity="0" />
    </radialGradient>
    <linearGradient id="shadow" x1="210" y1="320" x2="210" y2="374" gradientUnits="userSpaceOnUse">
      <stop stop-color="#BE8C7B" stop-opacity="0.2" />
      <stop offset="1" stop-color="#BE8C7B" stop-opacity="0" />
    </linearGradient>
  </defs>

  <ellipse cx="210" cy="344" rx="105" ry="30" fill="url(#shadow)" />

  <path
    d="M154 127C133 106 126 78 142 58C154 43 177 48 186 67C195 86 184 111 164 128C160 131 157 130 154 127Z"
    fill="url(#ear)"
  />
  <path
    d="M266 127C287 106 294 78 278 58C266 43 243 48 234 67C225 86 236 111 256 128C260 131 263 130 266 127Z"
    fill="url(#ear)"
  />
  <path
    d="M151 126C151 91 177 65 210 65C243 65 269 91 269 126V151H151V126Z"
    fill="url(#body)"
  />

  <path
    d="M91 217C91 144 141 104 210 104C279 104 329 144 329 217C329 294 279 338 210 338C141 338 91 294 91 217Z"
    fill="url(#body)"
  />
  <path
    d="M156 296C156 263 179 242 210 242C241 242 264 263 264 296V326C249 334 231 338 210 338C189 338 171 334 156 326V296Z"
    fill="url(#belly)"
  />
  <path
    d="M91 217C91 144 141 104 210 104C279 104 329 144 329 217C329 294 279 338 210 338C141 338 91 294 91 217Z"
    fill="url(#glow)"
  />

  <circle cx="162" cy="203" r="22" fill="#6C4A42" />
  <circle cx="258" cy="203" r="22" fill="#6C4A42" />
  <circle cx="154" cy="195" r="7" fill="#FFFFFF" opacity="0.92" />
  <circle cx="250" cy="195" r="7" fill="#FFFFFF" opacity="0.92" />
  <circle cx="170" cy="212" r="4" fill="#FFFFFF" opacity="0.62" />
  <circle cx="266" cy="212" r="4" fill="#FFFFFF" opacity="0.62" />

  <path d="M209 218L197 235H222L209 218Z" fill="#ECA59A" />
  <path
    d="M180 254C190 264 201 269 213 269C225 269 236 264 246 254"
    stroke="#8E6259"
    stroke-width="11"
    stroke-linecap="round"
  />
  <path d="M176 254C183 262 190 267 199 268" stroke="#8E6259" stroke-width="11" stroke-linecap="round" />
  <path d="M119 235C126 221 139 216 153 220" stroke="#EDA29C" stroke-width="10" stroke-linecap="round" />
  <path d="M301 235C294 221 281 216 267 220" stroke="#EDA29C" stroke-width="10" stroke-linecap="round" />

  <path
    d="M115 263C100 261 89 270 88 284C87 298 99 307 114 303C124 300 130 292 130 282C130 273 124 265 115 263Z"
    fill="#F3C9BD"
  />
  <path
    d="M305 263C320 261 331 270 332 284C333 298 321 307 306 303C296 300 290 292 290 282C290 273 296 265 305 263Z"
    fill="#F3C9BD"
  />
  <path d="M183 317C190 323 199 326 210 326C221 326 230 323 237 317" stroke="#E2B7AA" stroke-width="8" stroke-linecap="round" />
</svg>
